<svg xmlns="http://www.w3.org/2000/svg" width="512" height="512" viewBox="0 0 512 512"><defs><radialGradient id="bg" cx="50%" cy="38%" r="62%"><stop offset="0%" stop-color="#3a2818"/><stop offset="100%" stop-color="#0a0604"/></radialGradient><radialGradient id="rim" cx="50%" cy="50%" r="50%"><stop offset="92%" stop-color="rgba(255,140,66,0)"/><stop offset="98%" stop-color="#ff8c42"/><stop offset="100%" stop-color="rgba(255,140,66,0)"/></radialGradient><filter id="glow" x="-20%" y="-20%" width="140%" height="140%"><feGaussianBlur stdDeviation="3"/></filter></defs><rect width="512" height="512" fill="url(#bg)"/><circle cx="256" cy="256" r="248" fill="none" stroke="#d4a849" stroke-width="8" opacity="0.55"/><circle cx="256" cy="256" r="242" fill="url(#rim)" opacity="0.4"/><rect x="220" y="100" width="12" height="12" fill="#8a6a26"/><rect x="232" y="100" width="12" height="12" fill="#f0c66e"/><rect x="244" y="100" width="12" height="12" fill="#c43d2a"/><rect x="256" y="100" width="12" height="12" fill="#f0c66e"/><rect x="268" y="100" width="12" height="12" fill="#f0c66e"/><rect x="280" y="100" width="12" height="12" fill="#8a6a26"/><rect x="220" y="112" width="12" height="12" fill="#8a6a26"/><rect x="232" y="112" width="12" height="12" fill="#f0c66e"/><rect x="244" y="112" width="12" height="12" fill="#d4a849"/><rect x="256" y="112" width="12" height="12" fill="#f0c66e"/><rect x="268" y="112" width="12" height="12" fill="#d4a849"/><rect x="280" y="112" width="12" height="12" fill="#8a6a26"/><rect x="208" y="124" width="12" height="12" fill="#1a1108"/><rect x="220" y="124" width="12" height="12" fill="#1a1108"/><rect x="232" y="124" width="12" height="12" fill="#1a1108"/><rect x="244" y="124" width="12" height="12" fill="#1a1108"/><rect x="256" y="124" width="12" height="12" fill="#1a1108"/><rect x="268" y="124" width="12" height="12" fill="#1a1108"/><rect x="280" y="124" width="12" height="12" fill="#1a1108"/><rect x="292" y="124" width="12" height="12" fill="#1a1108"/><rect x="196" y="136" width="12" height="12" fill="#1a1108"/><rect x="208" y="136" width="12" height="12" fill="#c98a4a"/><rect x="220" y="136" width="12" height="12" fill="#1a1108"/><rect x="280" y="136" width="12" height="12" fill="#1a1108"/><rect x="292" y="136" width="12" height="12" fill="#c98a4a"/><rect x="304" y="136" width="12" height="12" fill="#1a1108"/><rect x="196" y="148" width="12" height="12" fill="#1a1108"/><rect x="208" y="148" width="12" height="12" fill="#c98a4a"/><rect x="220" y="148" width="12" height="12" fill="#d96b54"/><rect x="232" y="148" width="12" height="12" fill="#1a1108"/><rect x="244" y="148" width="12" height="12" fill="#1a1108"/><rect x="256" y="148" width="12" height="12" fill="#1a1108"/><rect x="268" y="148" width="12" height="12" fill="#1a1108"/><rect x="280" y="148" width="12" height="12" fill="#d96b54"/><rect x="292" y="148" width="12" height="12" fill="#c98a4a"/><rect x="304" y="148" width="12" height="12" fill="#1a1108"/><rect x="196" y="160" width="12" height="12" fill="#1a1108"/><rect x="208" y="160" width="12" height="12" fill="#c98a4a"/><rect x="220" y="160" width="12" height="12" fill="#c98a4a"/><rect x="232" y="160" width="12" height="12" fill="#c98a4a"/><rect x="244" y="160" width="12" height="12" fill="#c98a4a"/><rect x="256" y="160" width="12" height="12" fill="#c98a4a"/><rect x="268" y="160" width="12" height="12" fill="#c98a4a"/><rect x="280" y="160" width="12" height="12" fill="#c98a4a"/><rect x="292" y="160" width="12" height="12" fill="#c98a4a"/><rect x="304" y="160" width="12" height="12" fill="#1a1108"/><rect x="208" y="172" width="12" height="12" fill="#1a1108"/><rect x="220" y="172" width="12" height="12" fill="#8a5a2c"/><rect x="232" y="172" width="12" height="12" fill="#8a5a2c"/><rect x="244" y="172" width="12" height="12" fill="#c98a4a"/><rect x="256" y="172" width="12" height="12" fill="#8a5a2c"/><rect x="268" y="172" width="12" height="12" fill="#8a5a2c"/><rect x="280" y="172" width="12" height="12" fill="#c98a4a"/><rect x="292" y="172" width="12" height="12" fill="#8a5a2c"/><rect x="304" y="172" width="12" height="12" fill="#1a1108"/><rect x="196" y="184" width="12" height="12" fill="#1a1108"/><rect x="208" y="184" width="12" height="12" fill="#c98a4a"/><rect x="220" y="184" width="12" height="12" fill="#c98a4a"/><rect x="232" y="184" width="12" height="12" fill="#8a5a2c"/><rect x="244" y="184" width="12" height="12" fill="#c98a4a"/><rect x="256" y="184" width="12" height="12" fill="#8a5a2c"/><rect x="268" y="184" width="12" height="12" fill="#c98a4a"/><rect x="280" y="184" width="12" height="12" fill="#8a5a2c"/><rect x="292" y="184" width="12" height="12" fill="#c98a4a"/><rect x="304" y="184" width="12" height="12" fill="#c98a4a"/><rect x="316" y="184" width="12" height="12" fill="#1a1108"/><rect x="196" y="196" width="12" height="12" fill="#1a1108"/><rect x="208" y="196" width="12" height="12" fill="#0a0604"/><rect x="220" y="196" width="12" height="12" fill="#0a0604"/><rect x="232" y="196" width="12" height="12" fill="#c98a4a"/><rect x="244" y="196" width="12" height="12" fill="#c98a4a"/><rect x="256" y="196" width="12" height="12" fill="#c98a4a"/><rect x="268" y="196" width="12" height="12" fill="#c98a4a"/><rect x="280" y="196" width="12" height="12" fill="#0a0604"/><rect x="292" y="196" width="12" height="12" fill="#0a0604"/><rect x="304" y="196" width="12" height="12" fill="#c98a4a"/><rect x="316" y="196" width="12" height="12" fill="#1a1108"/><rect x="196" y="208" width="12" height="12" fill="#1a1108"/><rect x="208" y="208" width="12" height="12" fill="#0a0604"/><rect x="220" y="208" width="12" height="12" fill="#fff9e8"/><rect x="232" y="208" width="12" height="12" fill="#c98a4a"/><rect x="244" y="208" width="12" height="12" fill="#c98a4a"/><rect x="256" y="208" width="12" height="12" fill="#c98a4a"/><rect x="268" y="208" width="12" height="12" fill="#c98a4a"/><rect x="280" y="208" width="12" height="12" fill="#0a0604"/><rect x="292" y="208" width="12" height="12" fill="#fff9e8"/><rect x="304" y="208" width="12" height="12" fill="#c98a4a"/><rect x="316" y="208" width="12" height="12" fill="#1a1108"/><rect x="148" y="220" width="12" height="12" fill="#1a1108"/><rect x="160" y="220" width="12" height="12" fill="#1a1108"/><rect x="172" y="220" width="12" height="12" fill="#1a1108"/><rect x="196" y="220" width="12" height="12" fill="#1a1108"/><rect x="208" y="220" width="12" height="12" fill="#c98a4a"/><rect x="220" y="220" width="12" height="12" fill="#c98a4a"/><rect x="232" y="220" width="12" height="12" fill="#c98a4a"/><rect x="244" y="220" width="12" height="12" fill="#d96b54"/><rect x="256" y="220" width="12" height="12" fill="#d96b54"/><rect x="268" y="220" width="12" height="12" fill="#c98a4a"/><rect x="280" y="220" width="12" height="12" fill="#c98a4a"/><rect x="292" y="220" width="12" height="12" fill="#c98a4a"/><rect x="304" y="220" width="12" height="12" fill="#c98a4a"/><rect x="316" y="220" width="12" height="12" fill="#1a1108"/><rect x="340" y="220" width="12" height="12" fill="#1a1108"/><rect x="352" y="220" width="12" height="12" fill="#1a1108"/><rect x="364" y="220" width="12" height="12" fill="#1a1108"/><rect x="196" y="232" width="12" height="12" fill="#e0a565"/><rect x="208" y="232" width="12" height="12" fill="#c98a4a"/><rect x="220" y="232" width="12" height="12" fill="#c98a4a"/><rect x="232" y="232" width="12" height="12" fill="#c98a4a"/><rect x="244" y="232" width="12" height="12" fill="#d96b54"/><rect x="256" y="232" width="12" height="12" fill="#d96b54"/><rect x="268" y="232" width="12" height="12" fill="#c98a4a"/><rect x="280" y="232" width="12" height="12" fill="#c98a4a"/><rect x="292" y="232" width="12" height="12" fill="#c98a4a"/><rect x="304" y="232" width="12" height="12" fill="#c98a4a"/><rect x="316" y="232" width="12" height="12" fill="#e0a565"/><rect x="148" y="244" width="12" height="12" fill="#1a1108"/><rect x="160" y="244" width="12" height="12" fill="#1a1108"/><rect x="172" y="244" width="12" height="12" fill="#1a1108"/><rect x="196" y="244" width="12" height="12" fill="#e0a565"/><rect x="208" y="244" width="12" height="12" fill="#1a1108"/><rect x="220" y="244" width="12" height="12" fill="#c98a4a"/><rect x="232" y="244" width="12" height="12" fill="#1a1108"/><rect x="244" y="244" width="12" height="12" fill="#c98a4a"/><rect x="256" y="244" width="12" height="12" fill="#1a1108"/><rect x="268" y="244" width="12" height="12" fill="#c98a4a"/><rect x="280" y="244" width="12" height="12" fill="#1a1108"/><rect x="292" y="244" width="12" height="12" fill="#c98a4a"/><rect x="304" y="244" width="12" height="12" fill="#1a1108"/><rect x="316" y="244" width="12" height="12" fill="#e0a565"/><rect x="340" y="244" width="12" height="12" fill="#1a1108"/><rect x="352" y="244" width="12" height="12" fill="#1a1108"/><rect x="364" y="244" width="12" height="12" fill="#1a1108"/><rect x="196" y="256" width="12" height="12" fill="#1a1108"/><rect x="208" y="256" width="12" height="12" fill="#1a1108"/><rect x="220" y="256" width="12" height="12" fill="#1a1108"/><rect x="232" y="256" width="12" height="12" fill="#c98a4a"/><rect x="244" y="256" width="12" height="12" fill="#1a1108"/><rect x="256" y="256" width="12" height="12" fill="#c98a4a"/><rect x="268" y="256" width="12" height="12" fill="#1a1108"/><rect x="280" y="256" width="12" height="12" fill="#c98a4a"/><rect x="292" y="256" width="12" height="12" fill="#1a1108"/><rect x="304" y="256" width="12" height="12" fill="#1a1108"/><rect x="316" y="256" width="12" height="12" fill="#1a1108"/><rect x="184" y="268" width="12" height="12" fill="#1a1108"/><rect x="196" y="268" width="12" height="12" fill="#1a1108"/><rect x="208" y="268" width="12" height="12" fill="#c98a4a"/><rect x="220" y="268" width="12" height="12" fill="#c98a4a"/><rect x="232" y="268" width="12" height="12" fill="#1a1108"/><rect x="244" y="268" width="12" height="12" fill="#1a1108"/><rect x="256" y="268" width="12" height="12" fill="#1a1108"/><rect x="268" y="268" width="12" height="12" fill="#1a1108"/><rect x="280" y="268" width="12" height="12" fill="#1a1108"/><rect x="292" y="268" width="12" height="12" fill="#c98a4a"/><rect x="304" y="268" width="12" height="12" fill="#c98a4a"/><rect x="316" y="268" width="12" height="12" fill="#1a1108"/><rect x="328" y="268" width="12" height="12" fill="#1a1108"/><rect x="352" y="268" width="12" height="12" fill="#1a1108"/><rect x="364" y="268" width="12" height="12" fill="#1a1108"/><rect x="184" y="280" width="12" height="12" fill="#1a1108"/><rect x="196" y="280" width="12" height="12" fill="#c98a4a"/><rect x="208" y="280" width="12" height="12" fill="#c98a4a"/><rect x="220" y="280" width="12" height="12" fill="#c98a4a"/><rect x="232" y="280" width="12" height="12" fill="#c98a4a"/><rect x="244" y="280" width="12" height="12" fill="#c98a4a"/><rect x="256" y="280" width="12" height="12" fill="#c98a4a"/><rect x="268" y="280" width="12" height="12" fill="#c98a4a"/><rect x="280" y="280" width="12" height="12" fill="#c98a4a"/><rect x="292" y="280" width="12" height="12" fill="#c98a4a"/><rect x="304" y="280" width="12" height="12" fill="#c98a4a"/><rect x="316" y="280" width="12" height="12" fill="#c98a4a"/><rect x="328" y="280" width="12" height="12" fill="#1a1108"/><rect x="352" y="280" width="12" height="12" fill="#e0a565"/><rect x="364" y="280" width="12" height="12" fill="#e0a565"/><rect x="172" y="292" width="12" height="12" fill="#1a1108"/><rect x="184" y="292" width="12" height="12" fill="#c98a4a"/><rect x="196" y="292" width="12" height="12" fill="#c98a4a"/><rect x="208" y="292" width="12" height="12" fill="#c98a4a"/><rect x="220" y="292" width="12" height="12" fill="#c98a4a"/><rect x="232" y="292" width="12" height="12" fill="#f4e4bc"/><rect x="244" y="292" width="12" height="12" fill="#f4e4bc"/><rect x="256" y="292" width="12" height="12" fill="#f4e4bc"/><rect x="268" y="292" width="12" height="12" fill="#f4e4bc"/><rect x="280" y="292" width="12" height="12" fill="#f4e4bc"/><rect x="292" y="292" width="12" height="12" fill="#c98a4a"/><rect x="304" y="292" width="12" height="12" fill="#c98a4a"/><rect x="316" y="292" width="12" height="12" fill="#c98a4a"/><rect x="328" y="292" width="12" height="12" fill="#c98a4a"/><rect x="340" y="292" width="12" height="12" fill="#1a1108"/><rect x="352" y="292" width="12" height="12" fill="#1a1108"/><rect x="364" y="292" width="12" height="12" fill="#1a1108"/><rect x="172" y="304" width="12" height="12" fill="#1a1108"/><rect x="184" y="304" width="12" height="12" fill="#c98a4a"/><rect x="196" y="304" width="12" height="12" fill="#c98a4a"/><rect x="208" y="304" width="12" height="12" fill="#c98a4a"/><rect x="220" y="304" width="12" height="12" fill="#f4e4bc"/><rect x="232" y="304" width="12" height="12" fill="#f4e4bc"/><rect x="244" y="304" width="12" height="12" fill="#f4e4bc"/><rect x="256" y="304" width="12" height="12" fill="#f4e4bc"/><rect x="268" y="304" width="12" height="12" fill="#f4e4bc"/><rect x="280" y="304" width="12" height="12" fill="#f4e4bc"/><rect x="292" y="304" width="12" height="12" fill="#f4e4bc"/><rect x="304" y="304" width="12" height="12" fill="#c98a4a"/><rect x="316" y="304" width="12" height="12" fill="#c98a4a"/><rect x="328" y="304" width="12" height="12" fill="#c98a4a"/><rect x="340" y="304" width="12" height="12" fill="#1a1108"/><rect x="376" y="304" width="12" height="12" fill="#1a1108"/><rect x="388" y="304" width="12" height="12" fill="#1a1108"/><rect x="172" y="316" width="12" height="12" fill="#1a1108"/><rect x="184" y="316" width="12" height="12" fill="#c98a4a"/><rect x="196" y="316" width="12" height="12" fill="#c98a4a"/><rect x="208" y="316" width="12" height="12" fill="#f4e4bc"/><rect x="220" y="316" width="12" height="12" fill="#f4e4bc"/><rect x="232" y="316" width="12" height="12" fill="#f4e4bc"/><rect x="244" y="316" width="12" height="12" fill="#f4e4bc"/><rect x="256" y="316" width="12" height="12" fill="#f4e4bc"/><rect x="268" y="316" width="12" height="12" fill="#f4e4bc"/><rect x="280" y="316" width="12" height="12" fill="#f4e4bc"/><rect x="292" y="316" width="12" height="12" fill="#f4e4bc"/><rect x="304" y="316" width="12" height="12" fill="#f4e4bc"/><rect x="316" y="316" width="12" height="12" fill="#c98a4a"/><rect x="328" y="316" width="12" height="12" fill="#c98a4a"/><rect x="340" y="316" width="12" height="12" fill="#1a1108"/><rect x="376" y="316" width="12" height="12" fill="#1a1108"/><rect x="388" y="316" width="12" height="12" fill="#c98a4a"/><rect x="172" y="328" width="12" height="12" fill="#1a1108"/><rect x="184" y="328" width="12" height="12" fill="#c98a4a"/><rect x="196" y="328" width="12" height="12" fill="#c98a4a"/><rect x="208" y="328" width="12" height="12" fill="#f4e4bc"/><rect x="220" y="328" width="12" height="12" fill="#f4e4bc"/><rect x="232" y="328" width="12" height="12" fill="#f4e4bc"/><rect x="244" y="328" width="12" height="12" fill="#f4e4bc"/><rect x="256" y="328" width="12" height="12" fill="#f4e4bc"/><rect x="268" y="328" width="12" height="12" fill="#f4e4bc"/><rect x="280" y="328" width="12" height="12" fill="#f4e4bc"/><rect x="292" y="328" width="12" height="12" fill="#f4e4bc"/><rect x="304" y="328" width="12" height="12" fill="#f4e4bc"/><rect x="316" y="328" width="12" height="12" fill="#c98a4a"/><rect x="328" y="328" width="12" height="12" fill="#c98a4a"/><rect x="340" y="328" width="12" height="12" fill="#1a1108"/><rect x="376" y="328" width="12" height="12" fill="#1a1108"/><rect x="388" y="328" width="12" height="12" fill="#1a1108"/><rect x="172" y="340" width="12" height="12" fill="#1a1108"/><rect x="184" y="340" width="12" height="12" fill="#c98a4a"/><rect x="196" y="340" width="12" height="12" fill="#c98a4a"/><rect x="208" y="340" width="12" height="12" fill="#f4e4bc"/><rect x="220" y="340" width="12" height="12" fill="#f4e4bc"/><rect x="232" y="340" width="12" height="12" fill="#f4e4bc"/><rect x="244" y="340" width="12" height="12" fill="#f4e4bc"/><rect x="256" y="340" width="12" height="12" fill="#f4e4bc"/><rect x="268" y="340" width="12" height="12" fill="#f4e4bc"/><rect x="280" y="340" width="12" height="12" fill="#f4e4bc"/><rect x="292" y="340" width="12" height="12" fill="#f4e4bc"/><rect x="304" y="340" width="12" height="12" fill="#f4e4bc"/><rect x="316" y="340" width="12" height="12" fill="#c98a4a"/><rect x="328" y="340" width="12" height="12" fill="#c98a4a"/><rect x="340" y="340" width="12" height="12" fill="#1a1108"/><rect x="364" y="340" width="12" height="12" fill="#1a1108"/><rect x="376" y="340" width="12" height="12" fill="#c98a4a"/><rect x="172" y="352" width="12" height="12" fill="#1a1108"/><rect x="184" y="352" width="12" height="12" fill="#c98a4a"/><rect x="196" y="352" width="12" height="12" fill="#c98a4a"/><rect x="208" y="352" width="12" height="12" fill="#f4e4bc"/><rect x="220" y="352" width="12" height="12" fill="#f4e4bc"/><rect x="232" y="352" width="12" height="12" fill="#f4e4bc"/><rect x="244" y="352" width="12" height="12" fill="#f4e4bc"/><rect x="256" y="352" width="12" height="12" fill="#f4e4bc"/><rect x="268" y="352" width="12" height="12" fill="#f4e4bc"/><rect x="280" y="352" width="12" height="12" fill="#f4e4bc"/><rect x="292" y="352" width="12" height="12" fill="#f4e4bc"/><rect x="304" y="352" width="12" height="12" fill="#f4e4bc"/><rect x="316" y="352" width="12" height="12" fill="#c98a4a"/><rect x="328" y="352" width="12" height="12" fill="#c98a4a"/><rect x="340" y="352" width="12" height="12" fill="#1a1108"/><rect x="352" y="352" width="12" height="12" fill="#1a1108"/><rect x="364" y="352" width="12" height="12" fill="#c98a4a"/><rect x="184" y="364" width="12" height="12" fill="#1a1108"/><rect x="196" y="364" width="12" height="12" fill="#c98a4a"/><rect x="208" y="364" width="12" height="12" fill="#f4e4bc"/><rect x="220" y="364" width="12" height="12" fill="#f4e4bc"/><rect x="232" y="364" width="12" height="12" fill="#f4e4bc"/><rect x="244" y="364" width="12" height="12" fill="#f4e4bc"/><rect x="256" y="364" width="12" height="12" fill="#f4e4bc"/><rect x="268" y="364" width="12" height="12" fill="#f4e4bc"/><rect x="280" y="364" width="12" height="12" fill="#f4e4bc"/><rect x="292" y="364" width="12" height="12" fill="#f4e4bc"/><rect x="304" y="364" width="12" height="12" fill="#f4e4bc"/><rect x="316" y="364" width="12" height="12" fill="#c98a4a"/><rect x="328" y="364" width="12" height="12" fill="#1a1108"/><rect x="352" y="364" width="12" height="12" fill="#c98a4a"/><rect x="184" y="376" width="12" height="12" fill="#1a1108"/><rect x="196" y="376" width="12" height="12" fill="#1a1108"/><rect x="208" y="376" width="12" height="12" fill="#1a1108"/><rect x="220" y="376" width="12" height="12" fill="#1a1108"/><rect x="232" y="376" width="12" height="12" fill="#1a1108"/><rect x="244" y="376" width="12" height="12" fill="#f4e4bc"/><rect x="256" y="376" width="12" height="12" fill="#f4e4bc"/><rect x="268" y="376" width="12" height="12" fill="#f4e4bc"/><rect x="316" y="376" width="12" height="12" fill="#1a1108"/><rect x="328" y="376" width="12" height="12" fill="#1a1108"/><rect x="196" y="388" width="12" height="12" fill="#1a1108"/><rect x="208" y="388" width="12" height="12" fill="#e0a565"/><rect x="220" y="388" width="12" height="12" fill="#e0a565"/><rect x="232" y="388" width="12" height="12" fill="#e0a565"/><rect x="244" y="388" width="12" height="12" fill="#f4e4bc"/><rect x="256" y="388" width="12" height="12" fill="#f4e4bc"/><rect x="268" y="388" width="12" height="12" fill="#f4e4bc"/><rect x="316" y="388" width="12" height="12" fill="#1a1108"/><rect x="208" y="400" width="12" height="12" fill="#1a1108"/><rect x="220" y="400" width="12" height="12" fill="#1a1108"/><rect x="232" y="400" width="12" height="12" fill="#1a1108"/><rect x="244" y="400" width="12" height="12" fill="#c98a4a"/><rect x="256" y="400" width="12" height="12" fill="#c98a4a"/><rect x="268" y="400" width="12" height="12" fill="#c98a4a"/><rect x="256" y="412" width="12" height="12" fill="#1a1108"/></svg>